<svg preserveAspectRatio="xMinYMax" class="style--ux" viewBox="0 0 540 432"><path d="M346.5,145h4.77a1.5,1.5,0,0,0,0-3H346.5a1.5,1.5,0,0,0,0,3Z" style="fill:#fff"/><path d="M381.65,174.73l-4.1,2.89a1.5,1.5,0,1,0,1.74,2.45l4.09-2.9a1.5,1.5,0,1,0-1.73-2.44Z" style="fill:#fff"/><path d="M369.36,183.41l-4.09,2.9a1.5,1.5,0,0,0,1.73,2.45l4.1-2.9a1.5,1.5,0,1,0-1.74-2.45Z" style="fill:#fff"/><path d="M448.4,174.73a1.5,1.5,0,1,0-1.73,2.44l4.09,2.9a1.5,1.5,0,1,0,1.74-2.45Z" style="fill:#fff"/><path
  d="M122.2,212.92h-1V202.86a9.51,9.51,0,0,0-9.5-9.5H69.87V192a1.5,1.5,0,0,0-3,0v1.36H25a9.51,9.51,0,0,0-9.5,9.5v23a9.52,9.52,0,0,0,9.5,9.5H111.7a9.52,9.52,0,0,0,9.5-9.5v-9.93h1a1.5,1.5,0,1,0,0-3Zm-4,12.93a6.51,6.51,0,0,1-6.5,6.5H25a6.51,6.51,0,0,1-6.5-6.5v-23a6.51,6.51,0,0,1,6.5-6.5H111.7a6.5,6.5,0,0,1,6.5,6.5Z"
  style="fill:#fff"/><path
  d="M25,93.63H66.87V95a1.5,1.5,0,1,0,3,0V93.63H111.7a9.51,9.51,0,0,0,9.5-9.5v-23a9.51,9.51,0,0,0-9.5-9.5H25a9.51,9.51,0,0,0-9.5,9.5v23A9.51,9.51,0,0,0,25,93.63Zm-6.5-32.48a6.51,6.51,0,0,1,6.5-6.5H111.7a6.5,6.5,0,0,1,6.5,6.5v23a6.5,6.5,0,0,1-6.5,6.5H25a6.51,6.51,0,0,1-6.5-6.5Z"
  style="fill:#fff"/><path d="M68.37,104a1.5,1.5,0,0,0-1.5,1.5v5.25a1.5,1.5,0,0,0,3,0v-5.25A1.5,1.5,0,0,0,68.37,104Z" style="fill:#fff"/><path d="M68.37,183a1.5,1.5,0,0,0,1.5-1.5v-5.25a1.5,1.5,0,0,0-3,0v5.25A1.5,1.5,0,0,0,68.37,183Z" style="fill:#fff"/><path d="M152.17,212.92h-5a1.5,1.5,0,0,0,0,3h5a1.5,1.5,0,0,0,0-3Z" style="fill:#fff"/><path d="M137.19,212.92h-5a1.5,1.5,0,0,0,0,3h5a1.5,1.5,0,0,0,0-3Z" style="fill:#fff"/><path
  d="M122.2,142h-1V132a9.51,9.51,0,0,0-9.5-9.5H69.87v-1.29a1.5,1.5,0,1,0-3,0v1.29H25a9.51,9.51,0,0,0-9.5,9.5v23a9.51,9.51,0,0,0,9.5,9.5H66.87v1.28a1.5,1.5,0,0,0,3,0v-1.28H111.7a9.51,9.51,0,0,0,9.5-9.5V145h1a1.5,1.5,0,0,0,0-3Zm-4,13a6.51,6.51,0,0,1-6.5,6.5H25a6.51,6.51,0,0,1-6.5-6.5V132a6.51,6.51,0,0,1,6.5-6.5H111.7a6.51,6.51,0,0,1,6.5,6.5Z"
  style="fill:#fff"/><path d="M150.82,145a1.5,1.5,0,0,0,0-3h-4.77a1.5,1.5,0,0,0,0,3Z" style="fill:#fff"/><path d="M136.51,145a1.5,1.5,0,0,0,0-3h-4.77a1.5,1.5,0,0,0,0,3Z" style="fill:#fff"/><path
  d="M517.48,193.36H474.75L473,192.1a1.49,1.49,0,0,0-2.09.36,1.42,1.42,0,0,0-.27.9h-39.8a9.51,9.51,0,0,0-9.5,9.5v23a9.52,9.52,0,0,0,9.5,9.5h86.67a9.52,9.52,0,0,0,9.5-9.5v-23A9.51,9.51,0,0,0,517.48,193.36Zm6.5,32.49a6.51,6.51,0,0,1-6.5,6.5H430.81a6.51,6.51,0,0,1-6.5-6.5v-23a6.5,6.5,0,0,1,6.5-6.5h86.67a6.51,6.51,0,0,1,6.5,6.5Z"
  style="fill:#fff"/><path
  d="M360.81,145h1.38v10a9.51,9.51,0,0,0,9.5,9.5h86.67a9.51,9.51,0,0,0,9.5-9.5V132a9.51,9.51,0,0,0-9.5-9.5H371.69a9.51,9.51,0,0,0-9.5,9.5v10h-1.38a1.5,1.5,0,0,0,0,3Zm4.38-13a6.51,6.51,0,0,1,6.5-6.5h86.67a6.51,6.51,0,0,1,6.5,6.5v23a6.51,6.51,0,0,1-6.5,6.5H371.69a6.51,6.51,0,0,1-6.5-6.5Z"
  style="fill:#fff"/><path d="M393.93,166l-4.09,2.89a1.5,1.5,0,0,0-.36,2.09,1.47,1.47,0,0,0,1.22.64,1.5,1.5,0,0,0,.87-.28l4.09-2.89a1.5,1.5,0,1,0-1.73-2.45Z" style="fill:#fff"/><path d="M464.78,186.31l-4.09-2.9a1.5,1.5,0,1,0-1.74,2.45l4.1,2.9a1.5,1.5,0,1,0,1.73-2.45Z" style="fill:#fff"/><path d="M436.12,166a1.5,1.5,0,0,0-1.73,2.45l4.09,2.89a1.5,1.5,0,0,0,.87.28,1.47,1.47,0,0,0,1.22-.64,1.5,1.5,0,0,0-.36-2.09Z" style="fill:#fff"/><path
  d="M399.24,193.36h-39.8a1.42,1.42,0,0,0-.27-.9,1.49,1.49,0,0,0-2.09-.36l-1.78,1.26h-10c0,1,.05,2,.08,3h53.88a6.5,6.5,0,0,1,6.5,6.5v23a6.51,6.51,0,0,1-6.5,6.5H346.69l.15,3h52.4a9.52,9.52,0,0,0,9.5-9.5v-23A9.51,9.51,0,0,0,399.24,193.36Z"
  style="fill:#fff"/><path class="body" d="M104.56,288.11,98.47,283a5.83,5.83,0,0,0-7.87-.22s2.59,1,6.24,2.12A49.44,49.44,0,0,1,104.56,288.11Z" style="fill:#fff"/><path class="body" d="M41,276.38l-2.86-.71-8-2s-4.54-1.13-4.46,3.9C25.67,277.6,25.88,275.08,41,276.38Z" style="fill:#fff"/><path class="body" d="M92.54,323.18s9,3,17.28.21,10.27-12.8,10.27-12.8a86.93,86.93,0,0,0-4.6-10.07c-6.62-12.77-40.16-17.69-40.16-17.69-17.24-1.18-34.46-3.65-43.32-3.39s-10.07,7-4.57,8.23C33.68,287.6,88.44,307.28,92.54,323.18Z" style="fill:#fff"/><path
  class="body"
  d="M186.64,233.39c7.83,11.12,25,24.71,44.37,26.7,21.75,2.23,44.07-11.06,58.55-28.39A84,84,0,0,0,297,221.25h0c.14-.31.25-.61.38-.92a108,108,0,0,0,7-14.76,36.43,36.43,0,0,0,6.11.52c5.8,0,14.68-12.85,14.68-24a16.58,16.58,0,0,0-10.67-16c.33-4.05.51-8.1.51-12.09,0-10.85-3.12-21.67-9.28-32.15a1.5,1.5,0,0,0-2.58,1.52c5.87,10,8.86,20.32,8.86,30.63a147.26,147.26,0,0,1-.92,16.31,134.76,134.76,0,0,1-10.29,39.09c5.26-25.28-9.92-44.43-28.78-54.05-18.15,1.47-26.1,9.39-26.19,9.49a1.5,1.5,0,0,1-2.16-2.08c.38-.4,7.33-7.41,23-9.83-8.93-3.6-18.29-5.11-26.47-4.2-21.82,2.42-39.29-15.17-42.55-36.07-1.44.83-22.38,14-22.38,76.48,0,12.89.72,23.41,4.14,32.31C181.13,225.82,184.08,229.75,186.64,233.39Zm15.46-49.11a9.28,9.28,0,0,1-9.22-8.36l-4.75-2.22a1.5,1.5,0,1,1,1.28-2.72L195,173.6a1.48,1.48,0,0,1,.84,1.61,6.27,6.27,0,0,0,12.54-.2,1.5,1.5,0,0,1,3,0A9.28,9.28,0,0,1,202.1,184.28Zm51.1-13.93a1.5,1.5,0,0,1,1.5,1.5,6.27,6.27,0,0,0,12.54.23,1.49,1.49,0,0,1,1.29-1.43l6.66-2.78a1.5,1.5,0,0,1,1.16,2.76l-6.21,2.6a9.27,9.27,0,0,1-18.44-1.38A1.5,1.5,0,0,1,253.2,170.35Zm-2,56a1.5,1.5,0,1,1-.72,2.91c-4.21-1-14.72-1.47-17.48-1.47a68.37,68.37,0,0,0-12.71,1.68,1.57,1.57,0,0,1-.37.05,1.5,1.5,0,0,1-.37-2.95A70.11,70.11,0,0,1,233,224.77C235.38,224.77,246.46,225.18,251.17,226.33Zm-69.84-72c1.25-.09,30.74-2,39,10.06,1.2,1.76,2,5.88,3.06,11.51.31,1.73.61,3.36.9,4.61l.24,1.1s0,0,0,.06c2.79,13.19,3.71,31,3.72,31.16a1.5,1.5,0,0,1-1.5,1.57h-.2c-.62-.09-6-.92-8.38-4.23a5.72,5.72,0,0,1-.89-4.57c1.51-7.1,3.89-21.43,4.25-23.6l-.18-.82c-.3-1.31-.6-3-.92-4.73-.7-3.79-1.65-9-2.58-10.36-7.31-10.67-36-8.77-36.33-8.76a1.5,1.5,0,0,1-.21-3Z"
  style="fill:#fff"/><path class="body" d="M220.65,208.39c.91,1.31,2.91,2.14,4.5,2.59-.23-3.67-.85-11.95-2.05-20.22-.89,5.13-2,11.4-2.86,15.41A2.61,2.61,0,0,0,220.65,208.39Z" style="fill:#fff"/><path class="body" d="M403.1,282.73a5.83,5.83,0,0,0-7.87.22l-6.1,5.16a49.93,49.93,0,0,1,7.72-3.26C400.51,283.75,403.1,282.73,403.1,282.73Z" style="fill:#fff"/><path class="body" d="M468,277.6c.08-5-4.46-3.9-4.46-3.9l-8,2-2.85.71C467.81,275.08,468,277.6,468,277.6Z" style="fill:#fff"/><path
  class="body"
  d="M461.69,279.44c-8.86-.26-26.09,2.21-43.32,3.39,0,0-33.54,4.92-40.17,17.69a89.2,89.2,0,0,0-4.6,10.07s2,10,10.27,12.8,17.28-.21,17.28-.21c4.11-15.9,58.87-35.58,65.11-35.51C471.76,286.42,470.55,279.69,461.69,279.44Z"
  style="fill:#fff"/><path
  class="body"
  d="M405,395.19l10.05-63.74a10.37,10.37,0,0,0-2-9,7.49,7.49,0,0,0-6.78-2.38,11.3,11.3,0,0,0-2.12,3.58,17,17,0,0,1,2.46-.6,4.61,4.61,0,0,1,4.2,1.4,7.56,7.56,0,0,1,1.31,6.4.43.43,0,0,0,0,.11l-9.85,62.4a36.58,36.58,0,0,0-27.67-4.53l-34.33,10.93,25-82.77s0-.08,0-.12l0-.12c.58-4.5,2.74-6.81,4.51-7a2,2,0,0,1,.88.08l0-.17c0-.07.36-1,1.05-2.63a5.06,5.06,0,0,0-2.37-.25,7.6,7.6,0,0,0-5.4,4.16,56,56,0,0,0-9.8-16.05l-1.42-3.52a.91.91,0,0,0-.09-.17c-4.77-8.48-7.16-80.55-7.69-107.53,1-37.29-8.86-66.81-29.26-87.75-29.64-30.42-70.38-31.3-74.93-31.3a49.09,49.09,0,0,0-32.64,12.62L203.56,79l-.1,0c-52.19,24.89-45.16,95.68-42.52,122.32a476,476,0,0,1,1.19,76.9c-15.32,7.37-26.94,19.38-32.19,33.73-1.48-3.43-3.92-5-6-5.26a4.81,4.81,0,0,0-2.15.18c.72,1.68,1.06,2.63,1.08,2.7l0,.11a1.94,1.94,0,0,1,.64,0c1.76.23,3.93,2.54,4.51,7a2.21,2.21,0,0,0,0,.25l25.77,84.68.71,2.34.22.72L119.81,390l-.11,0a36.64,36.64,0,0,0-28.14,2.14l-.52.28-9.7-61.46a.43.43,0,0,0,0-.11,7.56,7.56,0,0,1,1.31-6.4,4.6,4.6,0,0,1,4.2-1.4,19.7,19.7,0,0,1,2.74.69,11.05,11.05,0,0,0-2.1-3.62l-.29,0a7.5,7.5,0,0,0-6.79,2.38,10.37,10.37,0,0,0-2,9L88.25,394a36.73,36.73,0,0,0-11.6,50.11,1.72,1.72,0,0,0,.25.87,37.3,37.3,0,0,0,19.78,15.35l83.14,20.26c8.91,2.94,39.69,7.37,65.8,7.37,21.49,0,33.89-2.94,36.88-8.73a9.14,9.14,0,0,0,4.6-2.48c8.52-1.16,15.66-2.33,19.46-3.21l84.69-12.84.11,0A36.85,36.85,0,0,0,405,395.19Zm-43.21-81.8a9.45,9.45,0,0,1,.59,2.8l-23.1,76.38V347.48a1.5,1.5,0,0,0-3,0V401l-43.43,13.83c-1.88.44-4.48,1.21-7.64,2.24V341.85c12.61-12.32,22.11-25.06,28.24-37.88s7-21.78,7.09-26.06c0-.32,0-.68,0-1.06C340.43,283,355.77,296.49,361.79,313.39Zm-79.56,27.66a1,1,0,0,0,0,.17v76.85c-12.41,4.24-31.24,11.65-48.75,19.63-7.77-3.61-15.17-6.84-21.29-9.38v-87.1c0-.06,0-.11,0-.17s0,0,0-.05c-.09-.54-7.79-52.55-.11-77v25.22A35,35,0,0,0,237.91,323s9,1.21,16.05,0a42.28,42.28,0,0,0,13.61-5.48A34.92,34.92,0,0,0,282,289.25L281.54,265l0-1.47,0-1.74c9,23.28.77,78.67.69,79.23Zm-76.14-30.9c.64,11.3,1.79,21.38,2.5,26.88-17.45-17.78-25.21-33.3-28.66-43.41-4.36-12.8-3-20.18-2.28-21,1.27-1.28,3.44-2,6.2-2.88a52.51,52.51,0,0,0,10.8-4.54,25,25,0,0,1,12.31-3c1,0,1.82.05,2.5.1C206,272.53,204.89,288.6,206.09,310.15Zm78.83-47.85c3-.26,9.28-.29,14.81,2.89a53.12,53.12,0,0,0,10.81,4.54c2.75.89,4.93,1.6,6.19,2.87.75.84,2.09,8.22-2.28,21C311,303.73,303.25,319.25,285.8,337c.7-5.5,1.86-15.58,2.49-26.88C289.5,288.6,288.37,272.52,284.92,262.3ZM203.45,82.38a37.64,37.64,0,0,0-7.93,23.33,45.9,45.9,0,0,0,.25,4.69l.45-.28,2.42-1.4c-.07-1-.12-2-.12-3,0-23.57,22-38.16,42.34-38.16,4.42,0,44,.85,72.78,30.4,19.81,20.33,29.37,49.12,28.42,85.64.07,3.74,1.71,86.17,6.92,105.84a72.73,72.73,0,0,0-28.78-15.8,6.14,6.14,0,0,0-1.33-3.13c-1.78-1.8-4.27-2.61-7.41-3.62a50.92,50.92,0,0,1-10.23-4.29c-8.5-4.89-18.23-3.1-18.64-3a1.53,1.53,0,0,0-1,.72l.42-16.46a80,80,0,0,1-25,15.34,55.48,55.48,0,0,1-8.46,2.57,58,58,0,0,1-13.1,1.57,45.73,45.73,0,0,1-4.77-.24,58.54,58.54,0,0,1-18.65-5.32v1.9l-.25-.08c-.42-.08-10.14-1.87-18.65,3a50.92,50.92,0,0,1-10.23,4.29c-3.14,1-5.62,1.82-7.41,3.62a6.22,6.22,0,0,0-1.33,3.14,78.29,78.29,0,0,0-9,3.19,480.32,480.32,0,0,0-1.3-75.78C161.36,175.2,154.59,106.93,203.45,82.38Zm-49.52,265.1v43.87L131.32,317l1.29-3.65c4.92-13.8,16.08-25.37,30.87-32.47h.08a1.49,1.49,0,0,0,1.13-.55,75,75,0,0,1,9.17-3.51c0,.38,0,.73,0,1.05,0,4.28,1,13.35,7.09,26.06s15.63,25.56,28.23,37.88v85.23c-4.52-1.84-8.15-3.22-10.37-3.95l-40.35-16.92-1.52-5V347.48a1.5,1.5,0,0,0-3,0ZM284.8,473.88a.88.88,0,0,1-.05.15l-4.58.58.09.77a.73.73,0,0,0-.63.81.78.78,0,0,0,.29.49,1.65,1.65,0,0,0-.31.53c-1.81,5.5-18.25,8.2-44,7.21-23.12-.88-46.43-4.39-54.84-7.15L97.63,457a33.68,33.68,0,0,1-17.82-13.88,1.79,1.79,0,0,0-.58-.55,33.71,33.71,0,0,1,10.19-45.75l2.07-1.27c.47-.26.94-.52,1.42-.76a33.66,33.66,0,0,1,25.8-2l79,33.12.11,0c2.45.81,6.65,2.42,11.95,4.6a1.54,1.54,0,0,0,.72.3c8.65,3.58,20,8.62,31.41,14.16a1.7,1.7,0,0,0,.65.57C274.33,461.15,285.21,470.4,284.8,473.88ZM411.73,442.6a33.68,33.68,0,0,1-21,15.13l-84.69,12.84-.12,0c-3.47.81-9.92,1.89-17.69,3-.34-6.51-14.82-16.69-44.18-31.06a1.7,1.7,0,0,0-.86-.16c-2.06-1-4.12-2-6.16-3,24.22-10.9,48.89-19.85,56.55-21.64l43.33-13.79s38.4-12.23,38.4-12.23A33.63,33.63,0,0,1,400.84,396c.34.21.67.43,1,.65l1.62,1.15a33.74,33.74,0,0,1,8.27,44.82Z"
  style="fill:#fff"/></svg>
