  <svg preserveAspectRatio="xMinYMax" class="style--visual" xmlns="http://www.w3.org/2000/svg" viewBox="0 0 540 432">
  <style type="text/css">
  	.st0{fill:#FFFFFF;}
  </style>
  <g class="body">
  <path class="st0" d="M341.6,135.6c0.3-4.1,0.5-8.1,0.5-12.1c0-10.8-3.1-21.7-9.3-32.1c-0.4-0.7-1.3-1-2.1-0.5
  	c-0.7,0.4-1,1.3-0.5,2.1l0,0c5.9,10,8.9,20.3,8.9,30.6c0,5.4-0.3,10.9-0.9,16.3c-1.5,13.8-5.1,27.3-10.7,39.9
  	c6-26.9-11.1-47-31.5-56.2c-17.5,5.8-23.4,15.5-23.5,15.6c-0.3,0.5-0.8,0.7-1.3,0.7c-0.3,0-0.5-0.1-0.8-0.2c-0.7-0.4-0.9-1.3-0.5-2
  	c0.3-0.5,5.8-9.7,21.9-15.8c-8.4-3.1-17.1-4.4-24.8-3.5c-21.8,2.4-39.3-15.2-42.5-36.1c-1.4,0.8-22.4,14-22.4,76.5
  	c0,12.9,0.7,23.4,4.1,32.3c1.7,4.3,4.6,8.2,7.2,11.9c7.8,11.1,25,24.7,44.4,26.7c21.8,2.2,44.1-11.1,58.5-28.4
  	c2.5-3,4.7-6.1,6.8-9.4c0.1-0.1,0.1-0.2,0.2-0.3l0.3-0.4l0.2-0.4l0,0v-0.1c2.9-5,5.5-10.3,7.6-15.7c2,0.3,4.1,0.5,6.1,0.5
  	c5.8,0,14.7-12.9,14.7-23.9C352.5,144.6,348.2,138.2,341.6,135.6z M208.1,126.9c-0.8,0.1-1.5-0.6-1.6-1.4c-0.1-0.8,0.6-1.5,1.4-1.6
  	c4.9-0.2,9.8,0.2,14.6,1.2c10.7,2.1,19.1,6.9,24.4,13.8l0.1,0.1c1.5,2.3,2.8,5.9,3.9,11.1l0.2,1.1c0,0,0,0,0,0.1
  	c2.8,13.2,3.7,31,3.7,31.2c0,0.4-0.1,0.9-0.5,1.2c-0.3,0.2-0.6,0.4-1,0.4h-0.2c-0.6-0.1-6.1-0.9-8.4-4.2c-0.9-1.3-1.3-3-0.9-4.6
  	c1.5-7.1,3.9-21.4,4.2-23.6l-0.2-0.8c-1.1-4.7-2.2-8.1-3.5-10.1C232.7,125.4,208.3,126.9,208.1,126.9z M228.6,153.9
  	c-4.3,0-7.8-3.5-7.8-7.8c0,0,0,0,0,0c0-0.6,0.1-1.3,0.2-1.9l-6.4-3c-0.8-0.4-1.1-1.2-0.7-2c0.4-0.8,1.2-1.1,2-0.7l6.4,3
  	c2.5-3.5,7.4-4.2,10.9-1.7c3.5,2.5,4.2,7.4,1.7,10.9C233.4,152.8,231.1,153.9,228.6,153.9z M285.4,194.7c-7.6,4.7-11.9,6.9-24,8
  	c-0.8,0.1-1.6,0.1-2.4,0.1c-11.1,0-21.3-6.1-21.8-6.4c-0.7-0.5-0.9-1.4-0.4-2.1c0.4-0.7,1.3-0.9,2-0.5c0.1,0.1,11.4,6.8,22.4,5.9
  	c11.5-1,15.2-3,22.7-7.6c0.7-0.4,1.6-0.1,2,0.6C286.3,193.4,286.1,194.3,285.4,194.7L285.4,194.7z M302.9,138.2l-7.8,3.2
  	c0.1,0.5,0.2,1,0.1,1.6c0,4.3-3.5,7.8-7.8,7.8c-4.3,0-7.8-3.5-7.8-7.8c0-4.3,3.5-7.8,7.8-7.8c2.6,0,5,1.3,6.5,3.5l7.8-3.2
  	c0.8-0.3,1.6,0,2,0.8C304,137,303.7,137.8,302.9,138.2C302.9,138.2,302.9,138.2,302.9,138.2z"/>
  <path class="st0" d="M397.9,280.3c-4-10.8-11.2-20.2-20.6-27c-4.3-25.7-5.7-99.4-5.8-100c1-37.3-8.9-66.8-29.3-87.8
  	c-29.6-30.4-70.4-31.3-74.9-31.3c-12.1,0.1-23.7,4.5-32.6,12.6l-4.7,1.8H230c-52.2,24.9-45.2,95.7-42.5,122.3
  	c2.6,26.4,2.9,52.9,1,79.3c-4.5,2.9-8.7,6.3-12.4,10.2c-22.9,23.9-64.6,73.5-66.2,87.6c-4.3,16.4,5.6,33.2,22,37.5
  	c2.5,0.7,5.1,1,7.7,1h0.1c0.2,0,19.4-1.9,39.5-4.6c3.4-0.5,6.7-0.9,9.7-1.4l1.4,55c0,0.8,0.7,1.5,1.5,1.5l0,0c0.8,0,1.5-0.7,1.5-1.5
  	c0,0,0,0,0,0L192,380c19.3-3,30.9-5.7,34.5-8.2c0.7-0.3,1.2-0.9,1.4-1.6c0.5-1.3,0.2-2.9-0.8-4.8c-0.1-0.2-0.3-0.4-0.6-0.6
  	c-0.9-0.6-1.7-1.2-2.6-1.8l-2.9,1.5c1.1,1,2.3,1.9,3.5,2.7c0.4,0.6,0.6,1.2,0.5,1.9c-0.1,0-0.2,0.1-0.2,0.1
  	c-7.6,5.5-64.1,12.1-85.3,14.2c-15.3-0.1-27.7-12.5-27.7-27.8c0-12.1,6.8-22,20.1-27c11-4.2,20.4-6.4,35.4-8.6
  	c21.5-3.3,41.9-4.1,42.1-4.1c0.6,0,1.1,0.1,1.5,0.5c0.4,0.4,0.7,0.8,1,1.3l0.7-0.5l1.6-1c-0.2-0.7-0.6-1.3-1.1-1.8
  	c-1-1-2.4-1.6-3.8-1.5l0,0c-1,0-8.4,0.3-18.7,1.2l2.6-15.5c0.1-0.8-0.4-1.6-1.2-1.8s-1.6,0.4-1.8,1.2l-2.8,16.3
  	c-19.2,1.8-46.3,5.8-61.9,13.8l-0.1,0.1c-1.2,0.6-2.3,1.3-3.4,1.9c13.4-19.8,38.1-49.1,56-67.8c3.4-3.6,7.3-6.8,11.5-9.5l1.5-0.9
  	c4.9-3,10.3-5.2,15.8-6.7c-0.1,10.3,5.2,30.3,25.3,53.7l2.3,4.7l2.6-1.5l-10.2-21c-0.1-0.5-0.3-2.2,2.4-3.7
  	c-0.1,0.7-0.1,1.4,0.2,2.1c0,0.1,0,0.1,0.1,0.2l10.2,21c0.9-0.5,1.8-1,2.6-1.4l-10.1-20.8c-0.1-0.5-0.3-2.5,2.9-4
  	c0.5-0.3,1.1-0.5,1.7-0.6c0.4,0.1,0.7,0.1,1.1-0.1c0.8,0,1.6,0.3,2.1,0.9l10.4,21.5l3-0.6l-10.8-22.2c0-0.1-0.1-0.1-0.1-0.2
  	c-0.4-0.5-0.8-1-1.4-1.3c0.1-0.1,0.3-0.2,0.4-0.3c2.4-0.8,3.6,0.4,3.8,0.7l11.1,22.9l3.1-0.5l-11.6-23.9c0-0.1-0.1-0.1-0.1-0.2
  	c-1.4-1.8-3.8-2.7-6.1-2.2c-0.4-17.2,0.9-30,3.9-38.3c0.5,7.1,0.3,14.2-0.6,21.2c0.1,15.2,10,28.6,24.5,33.2l1.8-6.3
  	c0.6-2.1,2.6-3.5,4.8-3.2c1.1-1.7,3.1-2.5,5.1-2l20.2,5.8c8.6-6.6,13.6-16.8,13.6-27.7l-0.4-21.4c5.3,14.2,4.4,40,3.1,56.8
  	L280.7,276c-0.8-0.2-1.6,0.2-1.9,1l-0.5,1.6l-1.9-0.6c-0.8-0.2-1.6,0.2-1.9,1l-10.2,35.4c0.8,0.1,1.8,0.3,3,0.6l9.7-33.7l111.6,32.1
  	l-2.2,7.6c-1.2-0.4-2.4-0.8-3.5-1.3c0.6-0.2,1-0.8,1-1.4c0-0.8-0.7-1.5-1.5-1.5c-1,0-3.6,0-4,1.8s2,3.2,2.9,3.6
  	c1.4,0.7,2.8,1.2,4.3,1.6l-1.2,4.1c-1.2-0.3-2.4-0.8-3.5-1.3c0.8-0.3,1.2-1.1,0.9-1.9c-0.2-0.6-0.8-1-1.4-1c-1,0-3.6,0-4,1.8
  	c-0.6,2.4,3.7,4.2,7.2,5.3l-1.2,4.1c-1.2-0.3-2.4-0.8-3.5-1.3c0.8-0.3,1.2-1.1,0.9-1.9c-0.2-0.6-0.8-1-1.4-1c-1,0-3.6,0-4,1.8
  	c-0.6,2.4,3.6,4.2,7.2,5.3l-1.2,4.1c-1.2-0.4-2.4-0.8-3.5-1.3c0.8-0.3,1.2-1.2,0.9-1.9c-0.2-0.6-0.8-0.9-1.4-1c-1,0-3.6,0-4,1.8
  	c-0.6,2.4,3.7,4.2,7.2,5.3l-1.2,4.1c-1.2-0.4-2.4-0.8-3.5-1.3c0.8-0.3,1.2-1.1,0.9-1.9c-0.2-0.6-0.8-1-1.4-1c-0.9,0-3.2,0-3.9,1.5
  	c-11.1-4-28.2-9-54.9-15.9h-0.1c-2.1-0.4-5.9-0.1-7.6,2.7l1.1,0.8l0.9,0.6l0.3,0.9c0.7-2.5,4.3-2.1,4.8-2
  	c70.5,18.2,72.4,22.7,76.1,31.6c0.5,1.2,1,2.5,1.8,3.9c0.3,0.5,0.8,0.8,1.3,0.8c0.2,0,0.5-0.1,0.7-0.2c0.7-0.4,1-1.3,0.7-2
  	c-0.7-1.3-1.2-2.5-1.7-3.7c-1.6-3.9-3-7-8.1-10.5h0.7c1.2,0,3.4-0.2,3.8-1.8c0.2-1,0-2.5-4.5-4.3l0.3-1c0.7,0.1,1.4,0.1,2.2,0.1
  	c2,0,3.7-0.5,4-1.9c0.2-1,0-2.5-4.5-4.3l0.3-1c0.7,0.1,1.3,0.1,1.9,0.1h0.5c1.2,0,3.3-0.2,3.8-1.9c0.2-1,0-2.5-4.5-4.3l0.3-1
  	c0.7,0.1,1.4,0.1,2.2,0.1c2,0,3.7-0.5,4-1.9c0.2-1,0-2.5-4.5-4.3l0.3-1c0.7,0.1,1.4,0.1,2.2,0.1c2,0,3.7-0.5,4-1.9
  	c0.3-1,0-2.5-4.5-4.3l2-7l0.2-0.6l0.3-1l0,0c0.2-0.8-0.3-1.5-1-1.8l-60.4-17.4c15-20.5,19-37.8,18.9-46.8
  	c20,6.1,35.4,19.6,41.5,36.6c8.4,23.6,5.8,88.7-2.4,115.1c-1.2,4-4,7.3-7.8,8.9c-17.3,8.2-53.8-6.4-54.2-6.5h-0.2
  	c-10.9-3-28.6-9.9-30.1-15.5c-0.2-0.7,0-1.5,0.4-2.1l-2.7-1.4c-0.8,1.3-1,2.8-0.6,4.2c2.4,9,28.7,16.6,32.1,17.6
  	c6.9,2.6,13.9,4.8,21.1,6.5l2,0.4c-0.2,0.2-0.3,0.5-0.4,0.8c-0.5,1.9,2,3.2,2.9,3.6c1.4,0.7,2.8,1.2,4.3,1.6l-1.2,4.1
  	c-1.2-0.4-2.4-0.8-3.6-1.3c0.8-0.3,1.2-1.2,0.9-1.9c-0.2-0.6-0.8-0.9-1.4-1c-1,0-3.6,0-4,1.8s2,3.2,2.9,3.6c1.4,0.7,2.9,1.2,4.3,1.6
  	l-1.2,4.1c-1.2-0.4-2.4-0.8-3.6-1.3c0.8-0.3,1.2-1.1,0.9-1.9c-0.2-0.6-0.8-1-1.4-1c-1,0-3.6,0-4,1.8c-0.6,2.5,3.7,4.2,7.3,5.3
  	l-1.2,4.1c-1.2-0.4-2.4-0.8-3.6-1.3c0.8-0.3,1.2-1.1,0.9-1.9c-0.2-0.6-0.8-1-1.4-1c-1,0-3.6,0-4,1.8c-0.6,2.5,3.7,4.2,7.3,5.3
  	l-0.1,0.2l-111.7-32L255,358l-2.7-1.5l-13.7,47.6c-0.2,0.8,0.2,1.6,1,1.9l4.8,1.4v30.1c0,0.8,0.7,1.5,1.5,1.5s1.5-0.7,1.5-1.5v-29.2
  	l60.8,17.5v11.8c0,0.8,0.7,1.5,1.5,1.5s1.5-0.7,1.5-1.5v-10.9l42.9,12.4c0.1,0,0.3,0.1,0.4,0.1c0.7,0,1.3-0.4,1.4-1.1l0.4-1.4
  	l-0.9,0.1l0.2-0.6l1.6,0.4l-0.1,0.2l1.9,0.6l0.1-0.4c0.9,0.1,1.9,0.2,2.8,0.2c2,0,3.7-0.5,4-1.9c0.3-1,0-2.6-5-4.5l0.2-0.8
  	c0.9,0.1,1.7,0.2,2.5,0.2h0.5c1,0,2.7-0.1,3.4-1.1l0.2,6.7c0,0.8,0.7,1.5,1.5,1.5l0,0c0.8,0,1.5-0.7,1.5-1.5l-0.5-19.7
  	c0.8-0.2,1.4-0.8,1.7-1.5c0.2-0.8,0.1-1.8-1.8-3v-0.4h1c6,0,11-0.9,14.9-2.8c4.6-2,8-6,9.4-10.8
  	C403.8,370.5,406.5,304.3,397.9,280.3z M239,269.5c-0.8,0.4-1.5,0.9-2.2,1.5c-1,0.2-1.9,0.5-2.8,0.9c-0.9,0.4-1.7,1-2.5,1.7l0,0
  	c-1,0.2-2,0.5-2.9,0.9c-4.7,2.3-4.9,6-4.4,7.7c0,0.1,0,0.1,0.1,0.2l1.8,3.8c-13.5-19.3-16.2-34.7-16-41.7c0-0.6,0.1-1.5,0.2-2.2
  	c0.1-0.6,0.3-1.2,0.6-1.8c1.3-1.3,3.4-2,6.2-2.9c3.8-1.1,7.4-2.6,10.8-4.5c5.5-3.2,11.8-3.1,14.8-2.9
  	C239.8,239,238.6,252.2,239,269.5z M383.5,346.6l-0.7,2.4l-0.2,0.9c-0.6-0.1-1.3-0.2-2-0.4l1.2-4.1c0.6,0.1,1.3,0.3,2,0.4
  	L383.5,346.6z M385.6,339.6l-0.8,2.5l-0.2,0.8c-0.6-0.1-1.3-0.2-2-0.4l1.2-4.1c0.7,0.2,1.3,0.3,2,0.4L385.6,339.6z M387.6,332.6
  	l-0.8,2.6l-0.2,0.8c-0.6-0.1-1.3-0.2-2-0.4l1.2-4.1c0.6,0.1,1.3,0.3,2,0.4L387.6,332.6z M389.7,325.6l-0.8,2.6l-0.2,0.7
  	c-0.6-0.1-1.3-0.2-2-0.4l1.2-4.1c0.6,0.1,1.3,0.3,2,0.4L389.7,325.6z M393.1,310.4c0.3,0.1,0.5,0.2,0.6,0.5c0.1,0.2,0.2,0.5,0.1,0.8
  	l-0.1,0.2l-2,6.8l-0.8,2.7l-0.2,0.7c-0.6-0.1-1.3-0.2-2-0.4l2.8-9.6l-111.3-31.8l0.5-1.9L393.1,310.4z M331.6,290.6l-10.8-3.1
  	c1.6-19.1,2.2-42.9-2.7-57.4c3-0.2,9.3-0.3,14.8,2.9c3.4,1.9,7,3.4,10.8,4.5c2.8,0.9,4.9,1.6,6.2,2.9
  	C351.6,242.4,352.2,263.2,331.6,290.6L331.6,290.6z M353.3,241.5c-0.1-1.1-0.5-2.2-1.2-3.1c-1.8-1.8-4.3-2.6-7.4-3.6
  	c-3.6-1.1-7-2.5-10.2-4.3c-8.5-4.9-18.2-3.1-18.6-3c-0.4,0.1-0.8,0.3-1,0.7V227v-1.5l0.5-18.5c-17.6,19.1-37.9,25.9-53,25.9
  	c-1.6,0-3.2-0.1-4.8-0.2c-4-0.4-7.8-1.3-11.6-2.6l0,0l-1.9-0.6h-0.1l-1.8-0.7h-0.1c-0.6-0.2-1.2-0.5-1.8-0.7h-0.1
  	c-0.6-0.3-1.2-0.5-1.8-0.8l0,0c-4.2,0.2-8.3,1.3-12,3.4c-3.2,1.8-6.7,3.2-10.2,4.3c-3.1,1-5.6,1.8-7.4,3.6c-0.8,1.1-1.3,2.4-1.4,3.8
  	c-5.5,1.3-10.8,3.4-15.7,6.2c1.7-25.9,1.3-51.9-1.2-77.7c-2.6-26-9.4-94.2,39.5-118.7c-5.2,6.7-8,14.9-7.9,23.3
  	c0,1.6,0.1,3.3,0.3,4.9l0,0c0.3-0.2,0.6-0.4,0.8-0.5l2.1-1.2c-0.1-1.1-0.1-2.1-0.1-3.2c0-23.6,22-38.2,42.3-38.2
  	c4.4,0,44,0.8,72.8,30.4c19.8,20.3,29.4,49.1,28.4,85.6c0,0.7,1.4,69.6,5.4,97.7C367.6,246.7,360.7,243.6,353.3,241.5L353.3,241.5z
  	 M365.3,415.8c0.7,0.1,1.3,0.2,2,0.2v1.7c-0.8-0.4-1.5-0.7-2.3-1L365.3,415.8z M363.1,410.3l1.7,0.2l-0.3,1.1l-0.3,1
  	c-0.5-0.1-1.1-0.2-1.7-0.4L363.1,410.3z M356.8,410.3c0.4-0.2,0.7-0.5,0.9-0.9c1.1,0.2,2.1,0.4,3.2,0.5l-0.5,1.7
  	C359.2,411.3,358,410.9,356.8,410.3L356.8,410.3z M359,430.5l-0.5,1.7l-0.4,1.2c-0.5-0.1-1.1-0.2-1.6-0.3l1.2-4.1
  	c0.5,0.1,1.1,0.3,1.6,0.4L359,430.5z M361.2,423.1l-0.8,2.6l-0.2,0.8c-0.5-0.1-1.1-0.2-1.6-0.4l1.2-4.1c0.5,0.1,1.1,0.2,1.6,0.4
  	L361.2,423.1z M362.2,419.5c-0.5-0.1-1.1-0.2-1.7-0.4l1.2-4.1l1.7,0.4l-0.3,1l-0.6,2L362.2,419.5z M363.1,423.6l0.2-0.8
  	c0.9,0.1,1.8,0.2,2.7,0.2c0.5,0,1,0,1.5-0.1l0.1,3.4C367.1,425.5,365.8,424.6,363.1,423.6L363.1,423.6z"/>
  <path class="st0" d="M247.2,178c0.9,1.3,2.9,2.1,4.5,2.6c-0.2-3.7-0.9-12-2.1-20.2c-0.9,5.1-2,11.4-2.9,15.4
  	C246.6,176.6,246.7,177.4,247.2,178z"/>
  <path class="st0" d="M259.4,346.9c-0.2,0-0.4,0-0.5-0.1l-7.9-2.9c-0.6-0.2-2,0.6-2.9,2.2c-1,1.8-0.6,4.1,1.1,5.3l4.8,2.6l1.7,0.9
  	l1.8,1l42.6,21.4c2.9-4.1,13.5-21.1,7.3-41.1c-2.8-1.9-18.1-12.3-23.2-13.8c-7.6-2.1-19.4-5-21.1-5c-1.2,0-2.3,0.6-3,1.6
  	c-0.4,0.9-0.4,2,0.2,2.9l6.1,1.3c0.8,0.1,1.4,0.9,1.3,1.7c-0.1,0.8-0.9,1.4-1.7,1.3c-0.1,0-0.1,0-0.2,0l-6.8-1.4h-0.1
  	c-1.5-0.3-2.8-0.6-3.6-0.7c-1.3-0.1-2.5,0.5-3.2,1.5c-0.7,1.2-0.3,3,1.1,5c0.3,0,0.5,0.2,0.7,0.3l1.2,0.3h0.1l7,2.3
  	c0.8,0.3,1.2,1.1,1,1.9c-0.3,0.8-1.1,1.2-1.9,1l-7-2.3l-1.3-0.3c-1.3,0.6-2.3,1.7-2.7,3.1c-0.2,1.4,0.2,2.8,1,4l8.7,3.2
  	c0.8,0.3,1.2,1.1,0.9,1.9C260.5,346.5,259.9,346.9,259.4,346.9L259.4,346.9z"/>
  <path class="st0" d="M261.9,303.7l2.7-1.4l1.5-5c-0.3-0.1-0.5-0.3-0.8-0.4c-5.6,0.6-11.3,1.6-16.8,2.9c-4.6,1.3-25.9,14.6-34.2,19.9
  	c-5.9,12.1-5.7,23.3,0.7,33.3c1.8,2.9,4,5.5,6.5,7.8l23-11.8c-0.2-1.6,0.1-3.1,0.8-4.5c0.6-1.2,1.6-2.3,2.8-3c-1-1.7-1.3-3.6-1-5.5
  	c0.4-1.8,1.5-3.3,3-4.4c-2.5-3.9-1.6-6.5-0.9-7.8c1.4-2.1,3.8-3.3,6.3-2.9l1.1,0.2c-0.3-1.3-0.1-2.6,0.6-3.7c0.8-1.3,2-2.2,3.5-2.7
  	l2.5-8.5l-0.1,0.1c-0.7,0.4-1.6,0.1-2-0.7S261.1,304.2,261.9,303.7L261.9,303.7z"/>
  </g>
  <g>
  	<path class="st0" d="M87.1,247.8V72.6H23.4v175.2H87.1z M26.4,75.6h57.7v169.2H26.4V75.6z"/>
  	<path class="st0 right-ui" d="M495.4,299.7V148.3h-47.3v151.5H495.4z M451.1,151.3h41.3v145.5h-41.3V151.3z"/>
  	<path class="st0" d="M94.5,247.8h91.2c0.1-1,0.1-2,0.2-3H97.5V75.6h99.4c0.6-1,1.2-2,1.8-3H94.5V247.8z"/>
  	<path class="st0" d="M12,259.6h160.9c0.4-0.4,0.8-0.8,1.1-1.2c0.6-0.6,1.2-1.2,1.8-1.8H15V63.7h190.4c0.9-1,1.8-2,2.8-3H15v-15
  		h214.5l3.7-1.4c0.6-0.5,1.2-1.1,1.8-1.6H12V259.6z"/>
  	<path class="st0 right-ui" d="M495.4,115.8h-124c0.2,1,0.4,2,0.6,3h120.4v21.8h-118c0,1,0.1,2,0.1,3h120.9V115.8z"/>
  	<path class="st0 right-ui" d="M364,92.7c0.4,1,0.9,2,1.3,3h137.2v10H368.8c0.3,1,0.6,2,0.9,3h132.8v197.9h-97.1c0.1,1,0.1,2,0.2,3h99.9V92.7
  		H364z"/>
  	<path class="st0 right-ui" d="M442.3,148.3h-67.8c0,1,0,2,0,3h64.8v145.5h-35c0.1,1,0.2,2,0.3,3h37.7V148.3z"/>
  	<path class="st0" d="M126.8,313.9c0.7-1,1.5-2,2.3-3H67v27.8h43.4c0.5-1,1-2,1.6-3H70v-21.8H126.8z"/>
  	<path class="st0" d="M67,397.1h63.2v-9c-1-0.3-2-0.7-3-1v7.1H70v-48h37.4c0.2-0.9,0.6-1.9,1-3H67V397.1z"/>
  	<path class="st0" d="M60.7,419.7H67h63.2h6v-30.5c-1-0.1-2-0.3-3-0.5v28h-3v-14.4H67v14.4h-3.2V306.8h68.5c1.3-1.6,2.6-3.2,3.9-4.9
  		v-11.1H60.7V419.7z M70,405.3h57.2v11.4H70V405.3z M63.7,293.8h69.4v10H63.7V293.8z"/>
  </g>
  </svg>
