<svg preserveAspectRatio="xMinYMax" class="style--visual" xmlns="http://www.w3.org/2000/svg" viewBox="0 0 540 432">
    <path d="M341.63 135.63c.33-4.06.5-8.11.5-12.1 0-10.85-3.12-21.66-9.27-32.14a1.5 1.5 0 1 0-2.59 1.52c5.88 10 8.86 20.31 8.86 30.62a147.26 147.26 0 0 1-.92 16.31 133.72 133.72 0 0 1-10.66 39.94c6-26.92-11.13-47-31.47-56.17-17.5 5.75-23.39 15.46-23.46 15.58a1.51 1.51 0 0 1-1.3.74 1.48 1.48 0 0 1-.75-.2 1.5 1.5 0 0 1-.54-2c.28-.5 5.77-9.66 21.86-15.79-8.4-3.11-17.1-4.38-24.76-3.53-21.81 2.42-39.28-15.17-42.54-36.07-1.44.83-22.38 14-22.38 76.48 0 12.89.72 23.41 4.13 32.31 1.66 4.31 4.61 8.24 7.17 11.88 7.83 11.12 25 24.71 44.37 26.7 21.75 2.23 44.07-11.06 58.55-28.38a84.73 84.73 0 0 0 6.79-9.36 1.94 1.94 0 0 0 .21-.3l.26-.45.22-.35v-.08a108.29 108.29 0 0 0 7.57-15.69 36.3 36.3 0 0 0 6.1.51c5.8 0 14.69-12.85 14.69-23.95a16.59 16.59 0 0 0-10.64-16.03zm-133.57-8.7a1.5 1.5 0 0 1-.2-3 60.73 60.73 0 0 1 14.61 1.16c10.67 2.13 19.09 6.89 24.35 13.75l.07.11c1.49 2.3 2.77 5.93 3.93 11.08l.24 1.1a.13.13 0 0 1 0 .06c2.8 13.19 3.71 31 3.72 31.16a1.47 1.47 0 0 1-.48 1.18 1.52 1.52 0 0 1-1 .39h-.21c-.61-.09-6.05-.92-8.37-4.23a5.68 5.68 0 0 1-.89-4.57c1.51-7.1 3.89-21.43 4.25-23.6l-.18-.82c-1.06-4.69-2.24-8.08-3.5-10.07-11.68-15.18-36.09-13.71-36.34-13.7zm20.57 27a7.77 7.77 0 0 1-7.77-7.77 7.66 7.66 0 0 1 .24-1.87l-6.44-3a1.5 1.5 0 0 1 1.27-2.72l6.44 3a7.77 7.77 0 1 1 6.26 12.36zm56.78 40.78c-7.65 4.66-11.86 6.94-24 8-.81.07-1.63.11-2.44.11-11.12 0-21.34-6.14-21.8-6.42a1.5 1.5 0 0 1 1.56-2.56c.11.07 11.4 6.82 22.43 5.88 11.48-1 15.25-3 22.68-7.55a1.5 1.5 0 0 1 1.56 2.56zm17.46-56.5l-7.75 3.24a7.91 7.91 0 0 1 .15 1.55 7.77 7.77 0 1 1-1.31-4.32l7.76-3.24a1.5 1.5 0 1 1 1.15 2.77z" fill="#fff"></path>
    <path d="M397.92 280.26a58.51 58.51 0 0 0-20.58-27c-4.28-25.67-5.74-99.37-5.76-100 1-37.29-8.87-66.81-29.26-87.75-29.64-30.42-70.38-31.3-74.93-31.3a49.09 49.09 0 0 0-32.64 12.62l-4.66 1.81h-.11c-52.19 24.89-45.16 95.68-42.51 122.33a473 473 0 0 1 1 79.29 66.76 66.76 0 0 0-12.39 10.18c-22.95 23.91-64.58 73.49-66.2 87.56a30.76 30.76 0 0 0 29.77 38.5h.15c.19 0 19.39-1.91 39.51-4.64q5.13-.69 9.72-1.37l1.38 55a1.5 1.5 0 0 0 1.5 1.46 1.5 1.5 0 0 0 1.47-1.53L192 380c19.27-3 30.87-5.72 34.54-8.23a2.87 2.87 0 0 0 1.41-1.57c.5-1.26.22-2.88-.83-4.8a1.58 1.58 0 0 0-.55-.57 26.59 26.59 0 0 1-2.56-1.82l-2.89 1.48a39.38 39.38 0 0 0 3.54 2.68 3.13 3.13 0 0 1 .51 1.93 1.23 1.23 0 0 0-.25.14c-7.65 5.54-64.12 12.14-85.35 14.23a27.8 27.8 0 0 1-27.7-27.76c0-12.14 6.84-22 20.1-27.05 11-4.19 20.43-6.35 35.41-8.64 21.54-3.28 41.94-4.06 42.09-4.07a2 2 0 0 1 1.53.53 12.7 12.7 0 0 1 1 1.26l.7-.45 1.58-1a5.23 5.23 0 0 0-1.06-1.84 5 5 0 0 0-3.79-1.5c-1 0-8.4.33-18.7 1.25l2.65-15.47a1.5 1.5 0 1 0-3-.5l-2.78 16.26c-19.16 1.84-46.28 5.75-61.9 13.77l-.13.06q-1.78.93-3.36 1.92c13.35-19.78 38.1-49.12 56-67.75a63.88 63.88 0 0 1 11.5-9.5l1.52-.95a60.13 60.13 0 0 1 15.84-6.69c-.07 10.26 5.16 30.25 25.33 53.65l2.29 4.73 2.61-1.5-10.21-21c-.09-.45-.27-2.24 2.35-3.73a4.83 4.83 0 0 0 .16 2.12 1.46 1.46 0 0 0 .07.19l10.19 21c.93-.52 1.82-1 2.64-1.43l-10.06-20.76c-.1-.48-.3-2.47 2.87-4A7.66 7.66 0 0 1 237 274a1.45 1.45 0 0 0 1.06-.1 2.83 2.83 0 0 1 2.14.92l10.41 21.46 3-.63-10.75-22.25a.77.77 0 0 0-.1-.18 5 5 0 0 0-1.37-1.31 1.56 1.56 0 0 0 .35-.33c2.44-.77 3.58.36 3.83.66l11.09 22.88 3.11-.47-11.57-23.85a1.62 1.62 0 0 0-.1-.18 6 6 0 0 0-6.08-2.18c-.42-17.17.91-30 3.95-38.28a108.38 108.38 0 0 1-.57 21.24 35 35 0 0 0 24.51 33.21l1.82-6.33a4.48 4.48 0 0 1 4.75-3.24 4.53 4.53 0 0 1 5.07-2l20.17 5.81a34.89 34.89 0 0 0 13.6-27.66l-.39-21.35c5.34 14.16 4.41 40 3.06 56.8L280.72 276a1.5 1.5 0 0 0-1.86 1l-.47 1.64-1.93-.56a1.49 1.49 0 0 0-1.85 1l-10.18 35.41c.78.12 1.79.32 2.95.57l9.7-33.71 111.57 32.08-2.16 7.57a28 28 0 0 1-3.52-1.31 1.51 1.51 0 0 0 1-1.4 1.5 1.5 0 0 0-1.48-1.51c-1 0-3.56 0-4 1.84s2 3.17 2.94 3.63a28.14 28.14 0 0 0 4.28 1.63l-1.22 4.12a24.88 24.88 0 0 1-3.53-1.31 1.5 1.5 0 0 0-.5-2.91c-1 0-3.56 0-4 1.84-.6 2.44 3.66 4.22 7.23 5.27l-1.18 4.08a25.36 25.36 0 0 1-3.53-1.31 1.5 1.5 0 0 0-.5-2.91c-1 0-3.56 0-4 1.84-.61 2.44 3.65 4.22 7.22 5.27l-1.17 4.09a26.76 26.76 0 0 1-3.54-1.32 1.5 1.5 0 0 0-.5-2.9c-1 0-3.56 0-4 1.84-.61 2.43 3.66 4.22 7.23 5.27l-1.18 4.08a26.93 26.93 0 0 1-3.54-1.31 1.5 1.5 0 0 0-.5-2.91c-.92 0-3.24 0-3.9 1.55-11.12-4-28.17-9-54.86-15.9h-.11c-2.1-.37-5.91-.14-7.62 2.66l1.13.77.86.59.28.92c.72-2.5 4.3-2.06 4.78-2 70.49 18.18 72.36 22.67 76.09 31.62.49 1.17 1 2.5 1.76 3.92a1.49 1.49 0 0 0 1.34.82 1.44 1.44 0 0 0 .67-.16 1.51 1.51 0 0 0 .67-2c-.67-1.32-1.18-2.54-1.67-3.71-1.64-3.94-3-7-8.1-10.46h.69c1.25 0 3.35-.18 3.76-1.84.25-1 0-2.52-4.45-4.3l.27-1a20.4 20.4 0 0 0 2.16.14c2 0 3.68-.46 4-1.85.25-1 0-2.53-4.46-4.31l.29-1c.66.08 1.3.13 1.88.15h.54c1.25 0 3.34-.18 3.76-1.85.25-1 0-2.52-4.46-4.3l.27-1a18.21 18.21 0 0 0 2.17.14c2 0 3.68-.46 4-1.85.25-1 0-2.53-4.47-4.31l.28-.95a20.58 20.58 0 0 0 2.17.14c2 0 3.68-.46 4-1.85.26-1 0-2.53-4.46-4.31l2-7 .17-.6.28-1a1.5 1.5 0 0 0-1.05-1.75l-60.42-17.37c15-20.47 19-37.82 18.89-46.84 20 6.07 35.41 19.64 41.45 36.59 8.39 23.56 5.76 88.69-2.36 115.06a14 14 0 0 1-7.83 8.93c-17.26 8.21-53.8-6.4-54.17-6.55h-.16c-10.86-3-28.64-9.89-30.1-15.48a2.47 2.47 0 0 1 .41-2.12l-2.7-1.35a5.43 5.43 0 0 0-.61 4.23c2.36 9 28.71 16.64 32.12 17.58a162.08 162.08 0 0 0 21.07 6.5l2 .44a2 2 0 0 0-.4.77c-.49 1.94 2 3.17 2.93 3.64a28.43 28.43 0 0 0 4.33 1.64l-1.17 4.09a25.58 25.58 0 0 1-3.58-1.33 1.5 1.5 0 0 0-.5-2.9c-1 0-3.56 0-4 1.84s2 3.17 2.93 3.63a29 29 0 0 0 4.34 1.65l-1.18 4.09a26.91 26.91 0 0 1-3.58-1.33 1.5 1.5 0 0 0-.5-2.91c-1 0-3.56 0-4 1.84-.61 2.45 3.7 4.24 7.27 5.28l-1.17 4.09a26.6 26.6 0 0 1-3.59-1.33 1.5 1.5 0 0 0-.5-2.91c-1 0-3.56 0-4 1.84-.61 2.45 3.7 4.24 7.28 5.29l-.06.19-111.66-32.04L255 358l-2.69-1.48-13.7 47.65a1.5 1.5 0 0 0 1 1.86l4.81 1.38v30.09a1.5 1.5 0 0 0 3 0v-29.22l60.77 17.48v11.75a1.5 1.5 0 0 0 3 0v-10.89L354.13 439a1.52 1.52 0 0 0 .42.06 1.5 1.5 0 0 0 1.44-1.09l.4-1.41-.88.07.17-.56 1.61.36-.07.21 1.92.56.13-.43a21.05 21.05 0 0 0 2.79.22c2 0 3.68-.46 4-1.85.26-1 0-2.64-5-4.52l.25-.84c.89.12 1.74.2 2.48.23h.54c1.05 0 2.67-.14 3.42-1.15l.16 6.66a1.5 1.5 0 0 0 1.5 1.46 1.5 1.5 0 0 0 1.46-1.53l-.49-19.68a2.27 2.27 0 0 0 1.69-1.55c.18-.75.09-1.78-1.8-3v-.43h1c6 0 10.95-.94 14.87-2.8a17.12 17.12 0 0 0 9.42-10.76c8.28-26.77 10.91-92.96 2.36-116.97zM239 269.49a9.83 9.83 0 0 0-2.2 1.52 9.78 9.78 0 0 0-2.84.91 9.58 9.58 0 0 0-2.47 1.66 10.15 10.15 0 0 0-2.88.93c-4.71 2.28-4.94 6-4.4 7.68a1.54 1.54 0 0 0 .08.19l1.83 3.78c-13.52-19.31-16.23-34.69-16-41.7 0-.56.15-1.46.2-2.21a3.92 3.92 0 0 1 .6-1.76c1.27-1.28 3.45-2 6.2-2.88a52.51 52.51 0 0 0 10.8-4.54c5.52-3.17 11.81-3.13 14.82-2.88-2.93 8.81-4.18 21.99-3.74 39.3zm144.51 77.16l-.7 2.36-.25.85c-.61-.1-1.27-.24-2-.4l1.2-4.08c.61.15 1.27.29 2 .43zm2.08-7l-.75 2.53-.23.77c-.61-.11-1.26-.24-2-.41l1.2-4.08c.67.16 1.32.3 2 .42zm2.05-7l-.76 2.58-.22.75c-.6-.11-1.26-.25-2-.41l1.2-4.07c.61.14 1.27.29 2 .42zm2.06-7l-.77 2.62-.21.72c-.61-.1-1.27-.24-2-.4l1.2-4.08c.61.15 1.27.29 2 .42zm3.44-15.23a1 1 0 0 1 .61.48 1 1 0 0 1 .08.76l-.07.23-2 6.78-.78 2.66-.21.7c-.61-.11-1.26-.24-2-.4l2.82-9.57-111.31-31.8.55-1.92zm-61.5-19.77l-10.75-3.09c1.59-19.08 2.16-42.92-2.7-57.36 3-.25 9.28-.29 14.81 2.89a52.51 52.51 0 0 0 10.8 4.54c2.76.89 4.93 1.6 6.19 2.87 1.63 1.89 2.2 22.69-18.31 50.13zm21.7-49.15a6 6 0 0 0-1.21-3.1c-1.78-1.8-4.26-2.61-7.4-3.62a50.92 50.92 0 0 1-10.23-4.29c-8.51-4.89-18.24-3.09-18.65-3a1.47 1.47 0 0 0-1 .69v-2.65l.53-18.48c-17.64 19.07-37.93 25.86-53 25.86a45.59 45.59 0 0 1-4.77-.24 55.28 55.28 0 0 1-11.61-2.55l-1.87-.65h-.06l-1.8-.69h-.1c-.59-.23-1.17-.48-1.75-.73h-.1c-.6-.27-1.19-.53-1.78-.81a27 27 0 0 0-12 3.35 50.92 50.92 0 0 1-10.23 4.29c-3.15 1-5.63 1.82-7.41 3.62a7.17 7.17 0 0 0-1.45 3.8 63.47 63.47 0 0 0-15.74 6.16 477.14 477.14 0 0 0-1.17-77.72C187.89 144.77 181.11 76.5 230 52a37.64 37.64 0 0 0-7.93 23.33 47.35 47.35 0 0 0 .26 4.91c.33-.23.6-.39.77-.49l2.09-1.21c-.08-1.06-.13-2.13-.13-3.2 0-23.57 22-38.16 42.34-38.16 4.42 0 44 .85 72.78 30.4 19.81 20.33 29.37 49.12 28.41 85.64 0 .72 1.38 69.6 5.36 97.67a75.39 75.39 0 0 0-20.57-9.41zm12 174.34q1 .14 2 .18v1.67a20.77 20.77 0 0 0-2.32-1zm-2.24-5.58l1.73.2-.32 1.09-.3 1c-.53-.09-1.09-.21-1.68-.35zm-6.31.08a1.53 1.53 0 0 0 .87-.86 83 83 0 0 0 3.19.49l-.49 1.7a26.18 26.18 0 0 1-3.51-1.35zm2.21 20.21l-.5 1.69-.36 1.23c-.52-.09-1.06-.21-1.62-.34l1.18-4.13c.55.13 1.1.26 1.63.36zm2.18-7.46l-.77 2.65-.23.77c-.52-.1-1.07-.22-1.64-.35l1.18-4.08c.52.12 1.07.25 1.65.36zm1-3.55c-.52-.1-1.08-.21-1.66-.35l1.19-4.08 1.66.37-.29 1-.58 2zm.89 4.07l.25-.83a19.92 19.92 0 0 0 2.72.22 10.48 10.48 0 0 0 1.53-.11l.09 3.44c-.57-.81-1.88-1.73-4.55-2.72z" fill="#fff"></path>
    <path d="M247.17 178c.92 1.31 2.92 2.14 4.51 2.59-.24-3.67-.85-12-2.05-20.22-.89 5.13-2 11.41-2.87 15.42a2.65 2.65 0 0 0 .41 2.21zM259.35 346.85a1.37 1.37 0 0 1-.52-.1l-7.93-2.93c-.62-.17-2 .58-2.87 2.18a4.09 4.09 0 0 0 1.1 5.33l4.81 2.65 1.67.92 1.82 1L300 377.28c2.92-4.15 13.52-21.15 7.33-41.08-2.75-1.89-18.08-12.33-23.22-13.79-7.56-2.15-19.36-5-21.06-5A4 4 0 0 0 260 319a3.08 3.08 0 0 0 .18 2.92l6.08 1.29a1.5 1.5 0 1 1-.62 2.93l-6.77-1.42h-.13c-1.47-.3-2.81-.58-3.62-.73a3.52 3.52 0 0 0-3.16 1.53c-.73 1.2-.34 3 1.08 5a1.52 1.52 0 0 1 .71.32l1.16.29h.11l7 2.33a1.5 1.5 0 0 1-.94 2.85l-7-2.32-1.29-.32a5 5 0 0 0-2.67 3.08 5.61 5.61 0 0 0 1 4l8.69 3.22a1.5 1.5 0 0 1-.52 2.91z" fill="#fff"></path>
    <path d="M261.9 303.74l2.7-1.37 1.5-5a6.52 6.52 0 0 0-.83-.36 118.82 118.82 0 0 0-16.76 2.94c-4.62 1.32-25.88 14.57-34.16 19.88-5.92 12.07-5.7 23.29.68 33.33a39.3 39.3 0 0 0 6.54 7.76l23-11.79a7.5 7.5 0 0 1 .83-4.51 7.7 7.7 0 0 1 2.81-3 8 8 0 0 1-1-5.49 7.27 7.27 0 0 1 3-4.35c-2.52-3.89-1.64-6.55-.87-7.81a6.47 6.47 0 0 1 6.3-2.92l1.12.23a5.33 5.33 0 0 1 .58-3.74 6.37 6.37 0 0 1 3.49-2.69l2.53-8.46-.15.08a1.5 1.5 0 1 1-1.36-2.68z" fill="#fff"></path>
  </svg>
